<svg width="26" height="31" viewBox="0 0 26 31" fill="none" xmlns="http://www.w3.org/2000/svg">
<path d="M9.44759 23.9826C9.44732 24.5021 9.30424 25.0116 9.03399 25.4554C8.76375 25.8991 8.37673 26.26 7.91524 26.4987C7.45375 26.7373 6.93553 26.8445 6.41723 26.8086C5.89892 26.7726 5.40047 26.5949 4.97634 26.2949C4.5522 25.9948 4.21871 25.5839 4.01231 25.1071C3.8059 24.6303 3.73452 24.106 3.80596 23.5914C3.87741 23.0767 4.08893 22.5917 4.41742 22.1891C4.74591 21.7866 5.17872 21.4821 5.66855 21.3089V18.314C5.66855 18.0635 5.76809 17.8232 5.94527 17.646C6.12244 17.4688 6.36275 17.3693 6.61331 17.3693C6.86388 17.3693 7.10418 17.4688 7.28136 17.646C7.45853 17.8232 7.55807 18.0635 7.55807 18.314V21.3089C8.1109 21.5044 8.5895 21.8665 8.92792 22.3453C9.26633 22.8242 9.4479 23.3962 9.44759 23.9826Z" fill="#41F4FF"/>
<path d="M1.88952 5.08742C1.88952 3.8346 2.3872 2.63308 3.27309 1.7472C4.15897 0.861316 5.36048 0.363632 6.61331 0.363632C7.86614 0.363632 9.06765 0.861316 9.95354 1.7472C10.8394 2.63308 11.3371 3.8346 11.3371 5.08742V19.3533C12.2485 20.2835 12.865 21.462 13.1092 22.7411C13.3535 24.0202 13.2147 25.343 12.7102 26.5436C12.2057 27.7441 11.358 28.769 10.2734 29.4898C9.18881 30.2105 7.91555 30.5949 6.61331 30.5949C5.31107 30.5949 4.03781 30.2105 2.95319 29.4898C1.86858 28.769 1.02088 27.7441 0.516404 26.5436C0.0119254 25.343 -0.126881 24.0202 0.117392 22.7411C0.361664 21.462 0.978141 20.2835 1.88952 19.3533V5.08742ZM6.61331 2.25315C5.86162 2.25315 5.14071 2.55176 4.60918 3.08329C4.07765 3.61482 3.77904 4.33573 3.77904 5.08742V20.179L3.46349 20.4624C2.75033 21.1002 2.24764 21.9394 2.02192 22.8692C1.79621 23.7989 1.85812 24.7752 2.19946 25.669C2.5408 26.5627 3.14547 27.3318 3.93347 27.8743C4.72147 28.4169 5.65565 28.7074 6.61237 28.7074C7.56909 28.7074 8.50326 28.4169 9.29126 27.8743C10.0793 27.3318 10.6839 26.5627 11.0253 25.669C11.3666 24.7752 11.4285 23.7989 11.2028 22.8692C10.9771 21.9394 10.4744 21.1002 9.76125 20.4624L9.44759 20.1771V5.08742C9.44759 4.33573 9.14898 3.61482 8.61745 3.08329C8.08592 2.55176 7.36501 2.25315 6.61331 2.25315ZM16.0609 4.14267C16.3115 4.14267 16.5518 4.2422 16.7289 4.41938C16.9061 4.59656 17.0057 4.83686 17.0057 5.08742V7.53057L18.2263 6.30805C18.4037 6.13065 18.6443 6.03099 18.8952 6.03099C19.1461 6.03099 19.3867 6.13065 19.5641 6.30805C19.7415 6.48545 19.8411 6.72606 19.8411 6.97694C19.8411 7.22782 19.7415 7.46843 19.5641 7.64583L17.0057 10.2023V13.8434L20.1593 12.0238L21.0946 8.52824C21.1268 8.40839 21.1824 8.29606 21.258 8.19768C21.3337 8.0993 21.428 8.01679 21.5356 7.95485C21.6431 7.89291 21.7618 7.85277 21.8849 7.8367C22.008 7.82064 22.133 7.82898 22.2528 7.86124C22.3727 7.89349 22.485 7.94904 22.5834 8.02471C22.6818 8.10037 22.7643 8.19468 22.8262 8.30223C22.8882 8.40979 22.9283 8.52849 22.9444 8.65156C22.9604 8.77463 22.9521 8.89966 22.9198 9.01951L22.472 10.6861L24.5883 9.46544C24.8052 9.34213 25.062 9.30961 25.3028 9.37498C25.5435 9.44034 25.7487 9.59829 25.8734 9.81434C25.9982 10.0304 26.0324 10.287 25.9686 10.5282C25.9048 10.7694 25.7483 10.9756 25.533 11.1018L23.4168 12.3224L25.0871 12.7702C25.207 12.8025 25.3193 12.858 25.4177 12.9337C25.5161 13.0093 25.5986 13.1036 25.6605 13.2112C25.7224 13.3188 25.7626 13.4375 25.7786 13.5605C25.7947 13.6836 25.7864 13.8086 25.7541 13.9285C25.7219 14.0483 25.6663 14.1606 25.5906 14.259C25.515 14.3574 25.4207 14.4399 25.3131 14.5019C25.2056 14.5638 25.0869 14.6039 24.9638 14.62C24.8407 14.6361 24.7157 14.6277 24.5958 14.5955L21.104 13.6602L17.9504 15.4798L21.104 17.2994L24.5977 16.3641C24.7183 16.3297 24.8446 16.3197 24.9691 16.3346C25.0936 16.3495 25.2139 16.389 25.3229 16.4509C25.432 16.5128 25.5277 16.5957 25.6043 16.695C25.681 16.7942 25.7372 16.9077 25.7695 17.0288C25.8019 17.15 25.8098 17.2764 25.7928 17.4006C25.7758 17.5249 25.7343 17.6445 25.6706 17.7525C25.6069 17.8605 25.5223 17.9548 25.4218 18.0298C25.3213 18.1048 25.2069 18.159 25.0852 18.1893L23.4168 18.6371L25.533 19.8578C25.7483 19.984 25.9048 20.1901 25.9686 20.4313C26.0324 20.6725 25.9982 20.9291 25.8734 21.1452C25.7487 21.3613 25.5435 21.5192 25.3028 21.5846C25.062 21.6499 24.8052 21.6174 24.5883 21.4941L22.472 20.2735L22.9198 21.9419C22.9542 22.0625 22.9643 22.1887 22.9493 22.3132C22.9344 22.4378 22.8949 22.5581 22.833 22.6671C22.7711 22.7762 22.6882 22.8718 22.5889 22.9485C22.4897 23.0252 22.3762 23.0813 22.2551 23.1137C22.1339 23.1461 22.0075 23.154 21.8833 23.137C21.7591 23.12 21.6394 23.0784 21.5314 23.0148C21.4234 22.9511 21.3291 22.8665 21.2541 22.766C21.1791 22.6655 21.1249 22.5511 21.0946 22.4294L20.1611 18.9376L17.0057 17.1161V20.7572L19.5641 23.3137C19.6519 23.4015 19.7216 23.5058 19.7691 23.6206C19.8167 23.7354 19.8411 23.8584 19.8411 23.9826C19.8411 24.1068 19.8167 24.2298 19.7691 24.3446C19.7216 24.4594 19.6519 24.5636 19.5641 24.6515C19.4762 24.7393 19.3719 24.809 19.2572 24.8565C19.1424 24.9041 19.0194 24.9285 18.8952 24.9285C18.7709 24.9285 18.6479 24.9041 18.5332 24.8565C18.4184 24.809 18.3141 24.7393 18.2263 24.6515L17.0057 23.429V25.8721C17.0057 26.1227 16.9061 26.363 16.7289 26.5402C16.5518 26.7173 16.3115 26.8169 16.0609 26.8169C15.8103 26.8169 15.57 26.7173 15.3929 26.5402C15.2157 26.363 15.1161 26.1227 15.1161 25.8721V5.08742C15.1161 4.83686 15.2157 4.59656 15.3929 4.41938C15.57 4.2422 15.8103 4.14267 16.0609 4.14267Z" fill="#41F4FF"/>
</svg>
