<svg width="164" height="155" viewBox="0 0 164 155" fill="none" xmlns="http://www.w3.org/2000/svg">
<g id="Floramos - LOGO">
<g id="Group">
<path id="Vector" d="M10.3495 86.7881H8.16401V94.2494H13.6853V95.558H8.16401V105.338H4.7132V85.4565H16.584V86.7651H10.3495V86.7881Z" fill="#956E41"/>
<path id="Vector_2" d="M20.1039 105.361V85.4795H23.5317V104.006H34.1372V105.338H20.1039V105.361Z" fill="#956E41"/>
<path id="Vector_3" d="M43.6844 105.476C40.6477 105.476 38.7612 104.534 36.8518 102.698C34.8733 100.861 33.9071 98.4047 33.9071 95.3972C33.9071 92.3897 34.8963 90.094 36.8748 88.2803C38.8532 86.4896 40.6937 85.6172 43.6614 85.6172C46.6291 85.6172 48.4925 86.4896 50.494 88.2573C52.4955 90.048 53.5077 92.4816 53.5077 95.512C53.5077 98.5424 52.5415 100.861 50.632 102.721C48.6996 104.557 46.8131 105.499 43.6844 105.499V105.476ZM43.6614 86.9487C41.5449 86.9487 40.5556 87.6375 39.4054 89.0838C38.2781 90.4842 37.703 92.5963 37.703 95.512C37.703 98.4276 38.3011 100.609 39.4054 102.009C40.5556 103.432 41.5909 104.121 43.8684 104.121C45.8469 104.121 47.1122 103.432 48.2625 102.009C49.4127 100.586 49.7118 98.4965 49.7118 95.5349C49.7118 92.5734 49.4127 90.5531 48.2855 89.1297C47.1582 87.6604 45.8239 86.9487 43.6614 86.9487Z" fill="#956E41"/>
<path id="Vector_4" d="M67.357 96.1549C68.0241 96.637 68.8063 97.3716 69.7035 98.5884C69.7035 98.5884 71.1528 100.54 73.1083 105.361H70.1636C69.8876 104.236 67.1959 96.2467 62.1807 96.2467H61.6976V99.9199V105.361H58.2928V85.4795H62.8019C64.6193 85.4795 66.1147 85.5943 67.2879 85.9386C68.4612 86.283 69.4504 86.7651 70.2096 87.5916C70.9688 88.4181 71.3369 89.4053 71.3369 90.5532C71.3369 91.8847 70.8538 93.0326 69.8645 93.9739C69.0824 94.7315 68.0241 95.3513 66.6668 95.6727C66.8738 95.8105 67.1269 95.9482 67.357 96.1549ZM62.5488 86.9488H61.6976V94.9151H63.5841C63.9061 94.9151 64.2282 94.8463 64.5503 94.7544C64.8724 94.6626 65.1714 94.5708 65.4245 94.4789C65.8846 94.3412 66.2757 94.0198 66.6208 93.6984C66.9199 93.3999 67.1499 93.0556 67.3339 92.5734C67.495 92.0913 67.61 91.4944 67.61 90.7827C67.61 89.4971 67.2879 88.5788 66.6668 87.8441C66.1377 87.1784 64.7803 86.9029 62.5258 86.9029L62.5488 86.9488Z" fill="#956E41"/>
<path id="Vector_5" d="M91.1446 105.361C90.0403 102.629 89.6262 101.619 89.6262 101.619L88.2459 98.2899H81.6433L78.9287 105.361H77.2263L85.4622 85.4795H86.4515L94.8945 105.361H91.1906H91.1446ZM84.8641 90.1399L82.0804 97.0272H87.7168L84.8641 90.1399Z" fill="#956E41"/>
<path id="Vector_6" d="M116.197 105.361V89.2216L109.066 105.361H107.962L100.876 89.2216V105.361H99.5646V85.4795H102.762L109.595 100.907L116.405 85.4795H119.602V105.361H116.151H116.197Z" fill="#956E41"/>
<path id="Vector_7" d="M134.395 105.361C131.358 105.361 129.472 104.42 127.562 102.583C125.584 100.746 124.617 98.2899 124.617 95.2824C124.617 92.275 125.607 89.9792 127.585 88.1655C129.564 86.3748 131.404 85.5024 134.372 85.5024C137.339 85.5024 139.203 86.3748 141.204 88.1426C143.206 89.9333 144.218 92.3668 144.218 95.3972C144.218 98.4277 143.252 100.769 141.342 102.606C139.41 104.443 137.523 105.384 134.395 105.384V105.361ZM134.372 86.834C132.255 86.834 131.266 87.5227 130.116 88.9691C128.988 90.3695 128.413 92.4816 128.413 95.3972C128.413 98.3129 129.011 100.494 130.116 101.894C131.266 103.318 132.301 104.006 134.579 104.006C136.557 104.006 137.823 103.318 138.973 101.894C140.123 100.471 140.422 98.3817 140.422 95.4202C140.422 92.4586 140.123 90.4384 138.996 89.015C137.869 87.5457 136.534 86.834 134.372 86.834Z" fill="#956E41"/>
<path id="Vector_8" d="M152.201 105.338C150.338 105.154 147.922 103.685 146.68 101.687L147.646 100.608C149.302 102.95 150.315 103.708 152.132 104.006C153.305 104.19 154.271 103.891 154.985 103.317C155.698 102.698 156.112 101.986 156.181 101.182C156.25 100.356 156.066 99.6442 155.56 99.0243C155.054 98.3815 154.041 97.6468 152.454 96.7515C151.028 95.9709 149.969 95.2822 149.279 94.7312C148.543 94.1343 147.968 93.4226 147.623 92.5732C147.255 91.7237 147.117 90.8513 147.232 89.933C147.393 88.5097 148.014 87.4077 149.072 86.5812C150.13 85.7547 151.419 85.4333 152.891 85.594C153.696 85.6859 154.479 85.8925 155.169 86.2368C155.882 86.5812 156.549 87.247 157.423 88.3949L156.296 89.3132C155.951 88.7622 155.79 88.5326 155.606 88.326C154.893 87.4995 153.972 87.0174 152.937 86.9026C151.902 86.7878 151.166 87.0174 150.683 87.4306C150.177 87.9357 149.877 88.4637 149.831 89.0836C149.762 89.8183 149.969 90.484 150.476 91.0809C151.005 91.7008 152.017 92.4584 153.604 93.3767C155.123 94.2491 156.227 94.9608 156.894 95.4659C157.607 95.9939 158.159 96.6826 158.527 97.555C158.896 98.4274 159.034 99.3916 158.919 100.425C158.735 102.055 158.044 103.363 156.802 104.282C155.583 105.223 154.018 105.567 152.201 105.338Z" fill="#956E41"/>
<path id="Vector_9" d="M60.5474 125.288V119.113H54.4739V125.288H52.3114V112.73H54.4739V118.263H60.5474V112.73H62.7099V125.288H60.5474Z" fill="#956E41"/>
<path id="Vector_10" d="M73.0163 125.288C71.0838 125.288 69.9105 124.691 68.6913 123.544C67.449 122.373 66.8278 120.835 66.8278 118.929C66.8278 117.024 67.449 115.577 68.6913 114.429C69.9336 113.304 71.1068 112.753 72.9703 112.753C74.8337 112.753 76.03 113.304 77.2953 114.429C78.5606 115.554 79.2047 117.092 79.2047 119.021C79.2047 120.949 78.6066 122.396 77.3873 123.567C76.168 124.737 74.9717 125.311 72.9933 125.311L73.0163 125.288ZM73.0163 113.58C71.682 113.58 71.0608 114.016 70.3246 114.934C69.6115 115.83 69.2434 117.161 69.2434 118.998C69.2434 120.835 69.6115 122.212 70.3246 123.107C71.0378 124.003 71.705 124.439 73.1543 124.439C74.3966 124.439 75.2018 124.003 75.915 123.107C76.6511 122.212 76.8352 120.88 76.8352 119.021C76.8352 117.161 76.6511 115.876 75.938 114.98C75.2248 114.062 74.3966 113.603 73.0163 113.603V113.58Z" fill="#956E41"/>
<path id="Vector_11" d="M88.775 113.557H86.9806V125.288H84.8181V113.557H79.7799V112.73H92.0418V113.557H88.775Z" fill="#956E41"/>
<path id="Vector_12" d="M99.1505 113.557H97.7471V118.286H101.244V119.113H97.7471V124.462H103.038V125.288H95.5616V112.73H103.061V113.58H99.1275L99.1505 113.557Z" fill="#956E41"/>
<path id="Vector_13" d="M106.65 125.288V112.73H108.813V124.439H115.507V125.288H106.65Z" fill="#956E41"/>
</g>
<g id="Group_2">
<path id="Vector_14" d="M22.7265 146.593H21.5993V144.504C21.1391 145.261 20.633 145.904 20.1269 146.455L19.1837 145.721C20.0809 144.871 20.7941 143.953 21.3462 142.943H19.3447V141.634H21.6223V140.257C20.8861 140.348 20.2649 140.394 19.7358 140.44L19.5288 139.155C21.5072 139.017 23.1406 138.764 24.4059 138.397L24.636 139.66C24.2449 139.797 23.6237 139.935 22.7495 140.073V141.634H24.935V142.943H23.0256C23.7388 143.608 24.4519 144.32 25.1421 145.055L24.4059 146.019C23.9228 145.445 23.3707 144.825 22.7725 144.182V146.57L22.7265 146.593ZM25.8092 150.335L25.0961 149.715V153.779H23.9688V153.136H20.7481V153.779H19.6208V147.787C19.6208 147.511 19.7588 147.351 19.9889 147.351H24.728C24.9811 147.351 25.1191 147.511 25.1191 147.787V149.371C25.3031 149.141 25.4872 148.958 25.6712 148.774C26.3154 147.993 26.7295 147.213 26.9135 146.409H26.3614C26.3614 146.409 26.2233 146.34 26.2233 146.226V141.382C26.2233 141.382 26.2694 141.221 26.3614 141.221H32.1357C32.1357 141.221 32.2968 141.267 32.2968 141.382V146.226C32.2968 146.34 32.2278 146.409 32.1357 146.409H28.0408C27.9718 146.777 27.9027 147.121 27.7877 147.442C27.7877 147.442 27.7877 147.442 27.7877 147.465H32.0667L32.8489 148.085V148.131C32.2968 149.646 31.4916 150.886 30.4333 151.827C31.2845 152.241 32.1357 152.562 32.9639 152.746L32.4578 154.008C31.4916 153.779 30.4793 153.32 29.3751 152.608C28.3398 153.297 27.1666 153.756 25.8553 154.031L25.1881 152.837C26.4534 152.585 27.5347 152.195 28.3859 151.712C27.7417 151.047 27.2126 150.243 26.7985 149.325C26.5224 149.669 26.2003 150.014 25.8323 150.381L25.8092 150.335ZM23.9458 149.715V148.705C23.9458 148.59 23.8998 148.521 23.7848 148.521H20.8861C20.8861 148.521 20.725 148.59 20.725 148.705V149.715H23.9458ZM20.725 150.886V151.965H23.9458V150.886H20.725ZM25.6252 141.887C25.3491 141.473 25.0731 141.152 24.82 140.968C25.4412 140.234 25.9013 139.361 26.1543 138.305L27.2816 138.81C27.2126 138.971 27.1666 139.132 27.0975 139.315H32.6189V140.486H26.5914C26.3844 140.922 26.0853 141.404 25.6482 141.91L25.6252 141.887ZM27.3276 144.32V145.17C27.3276 145.17 27.3276 145.215 27.3736 145.238H31.0775C31.0775 145.238 31.1235 145.215 31.1235 145.17V144.32H27.3276ZM31.1235 143.218V142.438C31.1235 142.438 31.1235 142.392 31.0775 142.392H27.3736C27.3736 142.392 27.3276 142.392 27.3276 142.438V143.218H31.1235ZM29.2831 151.024C30.1113 150.358 30.7554 149.577 31.1695 148.636H27.7187C27.9948 149.394 28.3859 150.06 28.892 150.611C29.007 150.748 29.145 150.886 29.2601 151.024H29.2831Z" fill="#956E41"/>
<path id="Vector_15" d="M44.4667 138.81C43.7995 140.601 43.0403 141.933 42.1891 142.805L41.1769 141.978C42.1431 140.968 42.8793 139.729 43.3624 138.282L44.4667 138.787V138.81ZM42.1661 147.626L41.1999 146.777C42.3502 145.629 43.2244 144.274 43.8225 142.69L44.9038 143.241C44.5587 144.045 44.2366 144.756 43.9145 145.33V153.939H42.7182V147.075C42.5342 147.282 42.3502 147.465 42.1661 147.626ZM45.3179 145.927H46.4451V151.598L47.4574 151.299V144.435H45.1568V143.126H47.4574V140.739H46.1C45.755 141.519 45.4329 142.116 45.1338 142.529C44.8117 142.139 44.5357 141.864 44.2596 141.68C44.9498 140.762 45.3869 139.614 45.6399 138.259L46.7672 138.65C46.6982 138.879 46.6292 139.132 46.5601 139.407H50.4481V140.716H48.6306V143.103H50.5631V144.412H48.6306V146.547H50.5631V147.856H48.6306V150.978L50.241 150.542L50.5401 151.942L44.7657 153.549L44.3746 152.195L45.2948 151.942V145.973L45.3179 145.927ZM52.2425 153.916H51.1152V139.132C51.1152 138.856 51.2302 138.718 51.4833 138.718H54.221C54.474 138.718 54.612 138.879 54.612 139.155V151.139C54.612 151.644 54.474 152.011 54.1749 152.241C53.7608 152.562 53.1167 152.631 52.2885 152.447V152.355L52.2655 153.916H52.2425ZM53.4618 140.188C53.4618 140.188 53.3928 140.027 53.3007 140.027H52.3805C52.3805 140.027 52.2425 140.073 52.2425 140.188V150.978C52.8406 151.093 53.2087 151.116 53.3237 151.047C53.4158 150.955 53.4618 150.771 53.4618 150.542V140.188Z" fill="#956E41"/>
<path id="Vector_16" d="M64.3203 149.21L63.2851 148.2C64.8494 146.868 66.0457 145.17 66.9199 143.126L68.0932 143.792C67.6561 144.71 67.242 145.491 66.8509 146.157V153.825H65.6086V147.901C65.1715 148.43 64.7574 148.866 64.3433 149.21H64.3203ZM68.3923 141.244V142.759H67.15V141.244H63.4461V139.82H67.15V138.397H68.3923V139.82H71.9581V138.397H73.2004V139.82H76.8123V141.244H73.2004V142.828H71.9581V141.244H68.3923ZM75.0638 143.677L75.9841 144.733C74.3277 146.524 72.6713 147.787 71.0379 148.521V151.322C71.0379 151.667 71.0609 151.896 71.1299 151.988C71.2679 152.172 71.498 152.241 71.8201 152.241H74.4657C74.8798 152.241 75.1559 152.103 75.2939 151.873C75.4089 151.621 75.4779 150.656 75.4779 149.003L76.7202 149.233C76.7202 151.391 76.6052 152.654 76.3521 153.044C76.1451 153.32 75.938 153.503 75.754 153.572C75.57 153.641 75.2709 153.664 74.8568 153.664H71.2449C70.8769 153.664 70.5778 153.549 70.3707 153.388C69.9336 153.044 69.7266 152.424 69.7496 151.529V143.08H70.9919V146.937C72.5332 146.111 73.8676 145.009 75.0178 143.654L75.0638 143.677Z" fill="#956E41"/>
<path id="Vector_17" d="M87.1877 153.939H85.9914V139.247C85.9914 138.948 86.1294 138.787 86.3825 138.787H97.9542C98.2303 138.787 98.3683 138.948 98.3683 139.247V153.939H97.172V153.274H87.1647V153.939H87.1877ZM91.6507 142.736V141.956H88.2229V140.854H91.6507V140.073H87.3487C87.2337 140.073 87.1647 140.142 87.1877 140.28V151.965H97.195V140.28C97.195 140.165 97.126 140.096 97.011 140.096H92.778V140.877H96.2288V141.978H92.778V142.759H96.6199V143.93H87.8318V142.759H91.6507V142.736ZM91.5127 147.947V151.529H90.3854V149.027C89.6263 149.853 88.9361 150.45 88.3149 150.817L87.5098 149.807C88.453 149.302 89.2582 148.659 89.9483 147.925H88.545C88.545 147.925 88.407 147.856 88.407 147.741V144.687C88.407 144.687 88.453 144.527 88.545 144.527H95.8147C95.8147 144.527 95.9757 144.573 95.9757 144.687V147.741C95.9757 147.856 95.9067 147.925 95.8147 147.925H93.1921C93.7672 149.371 94.9405 150.22 96.6659 150.519L96.0678 151.713C93.9513 151.162 92.617 149.899 92.0878 147.925H91.5357L91.5127 147.947ZM89.5112 145.652C89.5112 145.652 89.4652 145.652 89.4652 145.698V146.777C89.4652 146.777 89.4652 146.823 89.5112 146.846H94.8255C94.8255 146.846 94.8715 146.823 94.8715 146.777V145.698C94.8715 145.698 94.8715 145.652 94.8255 145.652H89.5112ZM96.85 148.843C96.4819 149.21 95.9988 149.6 95.3776 149.968L94.8485 148.958C95.4696 148.544 95.9297 148.2 96.2518 147.879L96.85 148.843Z" fill="#956E41"/>
<path id="Vector_18" d="M108.054 142.69C108.813 143.126 109.641 143.769 110.538 144.642L109.802 145.812C108.859 144.94 108.054 144.297 107.386 143.907L108.054 142.713V142.69ZM110.745 147.465C110.285 150.083 109.595 152.126 108.652 153.572L107.409 152.952C108.537 151.139 109.227 149.233 109.503 147.213L110.745 147.465ZM108.33 138.673C109.089 139.155 109.917 139.843 110.837 140.762L110.078 141.91C109.112 140.968 108.284 140.28 107.617 139.843L108.33 138.65V138.673ZM120.177 141.841C120.454 141.841 120.615 142.001 120.615 142.323V153.802H119.418V153.136H112.632V153.802H111.435V142.323C111.435 142.001 111.573 141.841 111.85 141.841H114.265V140.303H111.136V138.948H120.73V140.303H117.808V141.841H120.154H120.177ZM114.288 143.218H112.816C112.701 143.218 112.632 143.287 112.655 143.425V147.305C112.885 147.167 113.115 147.029 113.322 146.846C113.943 146.272 114.265 145.468 114.311 144.458V143.241L114.288 143.218ZM119.418 149.164V147.741H117.233C116.865 147.741 116.681 147.534 116.681 147.098V143.218H115.392V144.435C115.392 144.779 115.346 145.147 115.254 145.514C115.001 146.708 114.334 147.672 113.276 148.384L112.609 147.557V149.164H119.395H119.418ZM112.632 150.542V151.781H119.418V150.542H112.632ZM116.704 140.326H115.415V141.864H116.704V140.326ZM119.441 146.432V143.425C119.441 143.287 119.372 143.218 119.257 143.218H117.854V146.088C117.854 146.318 117.946 146.432 118.153 146.432H119.441Z" fill="#956E41"/>
<path id="Vector_19" d="M133.705 153.848H132.462V147.052C132.462 146.891 132.531 146.822 132.669 146.822H135.867V141.014H131.772C131.772 141.014 131.611 141.083 131.611 141.198V147.259C131.611 149.669 131.312 151.758 130.714 153.549L129.518 153.09C130.07 151.368 130.346 149.279 130.369 146.822V139.981C130.369 139.729 130.484 139.591 130.714 139.591H135.89V138.374H137.132V139.591H142.792V141.014H137.132V143.149H142.7V144.573H137.132V146.822H141.849C142.033 146.822 142.125 146.914 142.125 147.121V153.848H140.882V153.09H133.751V153.848H133.705ZM140.836 151.667V148.452C140.836 148.315 140.767 148.246 140.652 148.246H133.889C133.774 148.246 133.705 148.315 133.705 148.452V151.667H140.836Z" fill="#956E41"/>
</g>
<path id="Vector_20" d="M163.52 131.372H0.480225V132.015H163.52V131.372Z" fill="#956E41"/>
<g id="Group_3">
<g id="Group_4">
<path id="Vector_21" d="M88.0158 6.38993L81.9884 0.375L75.961 6.38993C69.6345 12.7033 69.6345 22.9425 75.961 29.2559L79.1127 32.4011L81.9654 6.38993L84.8181 32.4011L87.9698 29.2559C94.2963 22.9425 94.2963 12.7033 87.9698 6.38993H88.0158Z" fill="#956E41"/>
<path id="Vector_22" d="M49.9188 25.1466L42.3271 29.0035L46.192 36.5795C50.2639 44.5459 60.0182 47.6911 67.9781 43.6505L71.958 41.6302L48.0554 30.886L73.7295 36.2122L71.705 32.2405C67.633 24.2742 57.8787 21.129 49.9188 25.1695V25.1466Z" fill="#956E41"/>
<path id="Vector_23" d="M74.0975 48.2649L69.6805 48.9536C60.8464 50.3541 54.819 58.6418 56.2223 67.4576L57.5566 75.8601L65.9766 74.5286C74.8107 73.1281 80.8381 64.8404 79.4348 56.0246L78.7446 51.6167L61.0995 70.9701L74.0975 48.2419V48.2649Z" fill="#956E41"/>
<path id="Vector_24" d="M94.6874 48.9536L90.2704 48.2649L103.268 70.9931L85.6233 51.6397L84.9331 56.0476C83.5298 64.8633 89.5572 73.1511 98.3913 74.5515L106.811 75.8831L108.146 67.4805C109.549 58.6648 103.521 50.377 94.6874 48.9766V48.9536Z" fill="#956E41"/>
<path id="Vector_25" d="M114.265 25.468C106.282 21.4044 96.5278 24.5726 92.4789 32.5389L90.4544 36.5106L116.128 31.1844L92.2258 41.9287L96.2058 43.9489C104.189 48.0125 113.943 44.8443 117.992 36.878L121.857 29.3019L114.265 25.445V25.468Z" fill="#956E41"/>
</g>
<g id="Group_5">
<path id="Vector_26" d="M85.5772 69.6385C83.6678 67.0213 82.4945 64.0368 82.1034 60.9146C81.7123 64.0368 80.5391 67.0213 78.6296 69.6385C77.7784 70.8093 76.7892 71.8654 75.7079 72.8067C77.7324 73.2199 79.9409 73.4265 82.0804 73.4265C84.2199 73.4265 86.4284 73.2199 88.4529 72.8067C87.3717 71.8654 86.4054 70.8093 85.5312 69.6385H85.5772Z" fill="#956E41"/>
<path id="Vector_27" d="M109.595 47.3005C106.512 48.2876 103.314 48.4943 100.209 47.8974C103.061 49.2289 105.546 51.2722 107.432 53.8893C108.284 55.0602 108.997 56.3229 109.549 57.6315C110.561 55.8407 111.458 53.8205 112.125 51.7772C112.793 49.734 113.253 47.576 113.506 45.5327C112.287 46.2674 110.975 46.8643 109.595 47.3234V47.3005Z" fill="#956E41"/>
<path id="Vector_28" d="M95.5846 17.6852C95.5846 20.9222 94.7794 24.0215 93.261 26.7765C95.4236 24.4807 98.1152 22.7588 101.198 21.7487C102.578 21.2896 104.005 21.0141 105.431 20.8993C104.028 19.3841 102.371 17.9148 100.646 16.6521C98.8974 15.3894 97.0109 14.2874 95.1245 13.415C95.4466 14.7925 95.6076 16.2388 95.6076 17.6852H95.5846Z" fill="#956E41"/>
<path id="Vector_29" d="M63.6991 16.6291C61.9507 17.8918 60.3173 19.3611 58.9139 20.8763C60.3403 20.9911 61.7436 21.2896 63.1469 21.7258C66.2297 22.7129 68.9213 24.4577 71.0838 26.7535C69.5655 23.9986 68.7603 20.8993 68.7603 17.6622C68.7603 16.2159 68.9213 14.7696 69.2434 13.3921C67.3569 14.2415 65.4475 15.3665 63.7221 16.6291H63.6991Z" fill="#956E41"/>
<path id="Vector_30" d="M54.888 47.3925C53.5077 46.9334 52.1964 46.3365 50.9771 45.6018C51.2071 47.668 51.6902 49.8031 52.3574 51.8463C53.0246 53.8896 53.8988 55.9098 54.934 57.7005C55.4861 56.3919 56.1993 55.1293 57.0505 53.9584C58.96 51.3412 61.4445 49.321 64.2742 47.9665C61.1915 48.5634 57.9707 48.3797 54.888 47.3696V47.3925Z" fill="#956E41"/>
</g>
</g>
</g>
</svg>
