<svg width="91" height="38" viewBox="0 0 91 38" fill="none" xmlns="http://www.w3.org/2000/svg">
<path d="M0.52 21.908C0.52 21.5787 0.598 21.3273 0.754 21.154C0.91 20.9633 1.13533 20.868 1.43 20.868C1.72467 20.868 1.95 20.7813 2.106 20.608C2.262 20.4173 2.34 20.1573 2.34 19.828V7.946C2.34 7.61667 2.262 7.36533 2.106 7.192C1.95 7.00133 1.72467 6.906 1.43 6.906C1.13533 6.906 0.91 6.81933 0.754 6.646C0.598 6.45533 0.52 6.19533 0.52 5.866V5.58C0.52 4.88667 0.866667 4.54 1.56 4.54H5.512C6.20533 4.54 6.552 4.88667 6.552 5.58V5.866C6.552 6.55933 6.24867 6.906 5.642 6.906C5.34733 6.906 5.11333 7.00133 4.94 7.192C4.784 7.36533 4.706 7.61667 4.706 7.946V19.828C4.706 20.1573 4.784 20.4173 4.94 20.608C5.11333 20.7813 5.34733 20.868 5.642 20.868C5.93667 20.868 6.162 20.9633 6.318 21.154C6.474 21.3273 6.552 21.5787 6.552 21.908V22.194C6.552 22.8873 6.20533 23.234 5.512 23.234H1.56C0.866667 23.234 0.52 22.8873 0.52 22.194V21.908ZM23.854 12.054C23.854 12.5567 23.6807 12.99 23.334 13.354C23.126 13.562 23.022 13.7787 23.022 14.004C23.022 14.212 23.1087 14.4027 23.282 14.576L23.334 14.628C23.6807 14.9747 23.854 15.408 23.854 15.928V20.582C23.854 21.0847 23.6807 21.518 23.334 21.882L22.502 22.714C22.1553 23.0607 21.7307 23.234 21.228 23.234H14.624C13.9307 23.234 13.584 22.8873 13.584 22.194V5.606C13.584 4.91267 13.9307 4.566 14.624 4.566H21.228C21.7307 4.566 22.1553 4.748 22.502 5.112L23.334 5.944C23.6807 6.29067 23.854 6.71533 23.854 7.218V12.054ZM16.99 6.932C16.2967 6.932 15.95 7.27867 15.95 7.972V11.768C15.95 12.4613 16.2967 12.808 16.99 12.808H20.448C21.1413 12.808 21.488 12.4613 21.488 11.768L21.514 7.972C21.514 7.27867 21.1673 6.932 20.474 6.932H16.99ZM21.514 16.214C21.514 15.5207 21.1673 15.174 20.474 15.174H16.99C16.2967 15.174 15.95 15.5207 15.95 16.214V19.828C15.95 20.5213 16.2967 20.868 16.99 20.868H20.474C21.1673 20.868 21.514 20.5213 21.514 19.828V16.214ZM40.185 20.712C39.9944 21.3013 39.6044 21.596 39.015 21.596H38.001C37.377 21.596 36.9784 21.31 36.805 20.738L35.167 15.538C35.0977 15.3473 35.0024 15.2 34.881 15.096C34.777 14.992 34.6644 14.94 34.543 14.94C34.387 14.94 34.257 15.0093 34.153 15.148C34.049 15.2867 33.997 15.4773 33.997 15.72V22.168C33.997 22.8613 33.6504 23.208 32.957 23.208H32.697C32.0037 23.208 31.657 22.8613 31.657 22.168V5.606C31.657 4.91267 32.0037 4.566 32.697 4.566H33.087C33.6937 4.566 34.0837 4.852 34.257 5.424L37.793 16.734C37.8624 16.9767 37.9577 17.1587 38.079 17.28C38.2004 17.4013 38.3217 17.462 38.443 17.462C38.5817 17.462 38.7117 17.4013 38.833 17.28C38.9544 17.1413 39.0497 16.9507 39.119 16.708L42.447 5.45C42.6377 4.86067 43.0277 4.566 43.617 4.566H44.059C44.7524 4.566 45.099 4.91267 45.099 5.606V22.168C45.099 22.8613 44.7524 23.208 44.059 23.208H43.799C43.1057 23.208 42.759 22.8613 42.759 22.168V16.006C42.759 15.7633 42.707 15.5813 42.603 15.46C42.499 15.3213 42.369 15.252 42.213 15.252C41.9357 15.252 41.7364 15.4427 41.615 15.824L40.185 20.712ZM61.8739 10.624C61.1806 10.624 60.8339 10.2773 60.8339 9.584V7.53C60.8339 6.83667 60.4872 6.49 59.7939 6.49H56.3099C55.6166 6.49 55.2699 6.83667 55.2699 7.53V11.664C55.2699 12.3573 55.6166 12.704 56.3099 12.704H60.5739C61.0766 12.704 61.5012 12.8773 61.8479 13.224L62.6799 14.056C63.0266 14.4027 63.1999 14.8273 63.1999 15.33V20.582C63.1999 21.0847 63.0266 21.518 62.6799 21.882L61.8479 22.714C61.5012 23.0607 61.0766 23.234 60.5739 23.234H55.5559C55.0532 23.234 54.6286 23.0607 54.2819 22.714L53.4239 21.856C53.0772 21.5093 52.9039 21.0847 52.9039 20.582V18.034C52.9039 17.3407 53.2506 16.994 53.9439 16.994H54.2299C54.9232 16.994 55.2699 17.3407 55.2699 18.034V19.828C55.2699 20.5213 55.6166 20.868 56.3099 20.868H59.7939C60.4872 20.868 60.8339 20.5213 60.8339 19.828V16.084C60.8339 15.3907 60.4872 15.044 59.7939 15.044H55.5559C55.0359 15.044 54.6026 14.8707 54.2559 14.524L53.4239 13.692C53.0772 13.3453 52.9039 12.9207 52.9039 12.418V6.776C52.9039 6.27333 53.0772 5.84 53.4239 5.476L54.2559 4.644C54.6026 4.29733 55.0272 4.124 55.5299 4.124H60.5739C61.0766 4.124 61.5012 4.306 61.8479 4.67L62.6799 5.502C63.0266 5.84867 63.1999 6.27333 63.1999 6.776V9.584C63.1999 10.2773 62.8532 10.624 62.1599 10.624H61.8739Z" fill="#838383"/>
<path d="M67.1 7.79C67.1 7.72667 67.115 7.67833 67.145 7.645C67.175 7.60833 67.2183 7.59 67.275 7.59C67.3317 7.59 67.375 7.57333 67.405 7.54C67.435 7.50333 67.45 7.45333 67.45 7.39V5.105C67.45 5.04167 67.435 4.99333 67.405 4.96C67.375 4.92333 67.3317 4.905 67.275 4.905C67.2183 4.905 67.175 4.88833 67.145 4.855C67.115 4.81833 67.1 4.76833 67.1 4.705V4.65C67.1 4.51667 67.1667 4.45 67.3 4.45H68.06C68.1933 4.45 68.26 4.51667 68.26 4.65V4.705C68.26 4.83833 68.2017 4.905 68.085 4.905C68.0283 4.905 67.9833 4.92333 67.95 4.96C67.92 4.99333 67.905 5.04167 67.905 5.105V7.39C67.905 7.45333 67.92 7.50333 67.95 7.54C67.9833 7.57333 68.0283 7.59 68.085 7.59C68.1417 7.59 68.185 7.60833 68.215 7.645C68.245 7.67833 68.26 7.72667 68.26 7.79V7.845C68.26 7.97833 68.1933 8.045 68.06 8.045H67.3C67.1667 8.045 67.1 7.97833 67.1 7.845V7.79ZM69.1173 7.85C69.1173 7.98333 69.0506 8.05 68.9173 8.05H68.8623C68.729 8.05 68.6623 7.98333 68.6623 7.85V6.085C68.6623 5.98833 68.6956 5.90667 68.7623 5.84L68.9273 5.675C68.994 5.60833 69.0756 5.575 69.1723 5.575H69.7923C69.889 5.575 69.9706 5.61 70.0373 5.68L70.1973 5.84C70.264 5.90667 70.2973 5.98833 70.2973 6.085V7.85C70.2973 7.98333 70.2306 8.05 70.0973 8.05H70.0473C69.914 8.05 69.8473 7.98333 69.8473 7.85V6.23C69.8473 6.09667 69.7806 6.03 69.6473 6.03H69.3173C69.184 6.03 69.1173 6.09667 69.1173 6.23V7.85ZM71.9986 7.59C72.132 7.59 72.1986 7.65667 72.1986 7.79V7.845C72.1986 7.97833 72.132 8.045 71.9986 8.045H71.6536C71.557 8.045 71.4753 8.01167 71.4086 7.945L71.2436 7.78C71.177 7.71333 71.1436 7.63167 71.1436 7.535V6.225C71.1436 6.16167 71.127 6.11333 71.0936 6.08C71.0603 6.04333 71.012 6.025 70.9486 6.025C70.8153 6.025 70.7486 5.95833 70.7486 5.825V5.775C70.7486 5.71167 70.7653 5.66333 70.7986 5.63C70.8353 5.59333 70.8853 5.575 70.9486 5.575C71.012 5.575 71.0603 5.55833 71.0936 5.525C71.127 5.48833 71.1436 5.43833 71.1436 5.375V5.195C71.1436 5.06167 71.2103 4.995 71.3436 4.995H71.3986C71.532 4.995 71.5986 5.06167 71.5986 5.195V5.375C71.5986 5.50833 71.6653 5.575 71.7986 5.575H71.9986C72.132 5.575 72.1986 5.64167 72.1986 5.775V5.825C72.1986 5.95833 72.132 6.025 71.9986 6.025H71.7986C71.6653 6.025 71.5986 6.09167 71.5986 6.225V7.39C71.5986 7.52333 71.6653 7.59 71.7986 7.59H71.9986ZM74.1729 6.915C74.1729 7.04833 74.1062 7.115 73.9729 7.115H73.2029C73.0695 7.115 73.0029 7.18167 73.0029 7.315V7.385C73.0029 7.51833 73.0695 7.585 73.2029 7.585H73.9729C74.1062 7.585 74.1729 7.65167 74.1729 7.785V7.84C74.1729 7.97333 74.1062 8.04 73.9729 8.04H73.0529C72.9562 8.04 72.8745 8.005 72.8079 7.935L72.6479 7.775C72.5812 7.70833 72.5479 7.62667 72.5479 7.53V6.08C72.5479 5.98333 72.5812 5.90167 72.6479 5.835L72.8079 5.675C72.8745 5.60833 72.9562 5.575 73.0529 5.575H73.6679C73.7645 5.575 73.8462 5.60833 73.9129 5.675L74.0729 5.835C74.1395 5.90167 74.1729 5.98333 74.1729 6.08V6.915ZM73.0029 6.515C73.0029 6.64833 73.0695 6.715 73.2029 6.715H73.5179C73.6512 6.715 73.7179 6.64833 73.7179 6.515V6.225C73.7179 6.09167 73.6512 6.025 73.5179 6.025H73.2029C73.0695 6.025 73.0029 6.09167 73.0029 6.225V6.515ZM74.6719 4.65C74.6719 4.51667 74.7385 4.45 74.8719 4.45H74.9219C75.0552 4.45 75.1219 4.51667 75.1219 4.65V7.845C75.1219 7.97833 75.0552 8.045 74.9219 8.045H74.8719C74.7385 8.045 74.6719 7.97833 74.6719 7.845V4.65ZM75.624 4.65C75.624 4.51667 75.6907 4.45 75.824 4.45H75.874C76.0074 4.45 76.074 4.51667 76.074 4.65V7.845C76.074 7.97833 76.0074 8.045 75.874 8.045H75.824C75.6907 8.045 75.624 7.97833 75.624 7.845V4.65ZM76.7012 4.915C76.7512 4.865 76.8028 4.84 76.8562 4.84C76.9095 4.84 76.9612 4.865 77.0112 4.915C77.0612 4.965 77.0862 5.01667 77.0862 5.07C77.0862 5.12333 77.0612 5.175 77.0112 5.225C76.9612 5.275 76.9095 5.3 76.8562 5.3C76.8028 5.3 76.7512 5.275 76.7012 5.225C76.6512 5.175 76.6262 5.12333 76.6262 5.07C76.6262 5.01667 76.6512 4.965 76.7012 4.915ZM76.6312 5.775C76.6312 5.64167 76.6978 5.575 76.8312 5.575H76.8812C77.0145 5.575 77.0812 5.64167 77.0812 5.775V7.845C77.0812 7.97833 77.0145 8.045 76.8812 8.045H76.8312C76.6978 8.045 76.6312 7.97833 76.6312 7.845V5.775ZM78.6107 8.04C78.7441 8.04 78.8107 7.97333 78.8107 7.84V7.725C78.8107 7.59167 78.7441 7.525 78.6107 7.525H78.1457C78.0457 7.525 77.9624 7.49167 77.8957 7.425L77.7357 7.265C77.6691 7.19833 77.6357 7.11667 77.6357 7.02V6.085C77.6357 5.98833 77.6691 5.90667 77.7357 5.84L77.9007 5.675C77.9674 5.60833 78.0491 5.575 78.1457 5.575H79.0657C79.1991 5.575 79.2657 5.64167 79.2657 5.775V7.985C79.2657 8.035 79.2574 8.07833 79.2407 8.115C79.2241 8.155 79.1974 8.19333 79.1607 8.23L79.0007 8.39C78.9341 8.45667 78.8524 8.49 78.7557 8.49H77.8807C77.7474 8.49 77.6807 8.42333 77.6807 8.29V8.24C77.6807 8.10667 77.7474 8.04 77.8807 8.04H78.6107ZM78.0907 6.87C78.0907 7.00333 78.1574 7.07 78.2907 7.07H78.6107C78.7441 7.07 78.8107 7.00333 78.8107 6.87V6.23C78.8107 6.09667 78.7441 6.03 78.6107 6.03H78.2907C78.1574 6.03 78.0907 6.09667 78.0907 6.23V6.87ZM81.4385 6.915C81.4385 7.04833 81.3718 7.115 81.2385 7.115H80.4685C80.3351 7.115 80.2685 7.18167 80.2685 7.315V7.385C80.2685 7.51833 80.3351 7.585 80.4685 7.585H81.2385C81.3718 7.585 81.4385 7.65167 81.4385 7.785V7.84C81.4385 7.97333 81.3718 8.04 81.2385 8.04H80.3185C80.2218 8.04 80.1401 8.005 80.0735 7.935L79.9135 7.775C79.8468 7.70833 79.8135 7.62667 79.8135 7.53V6.08C79.8135 5.98333 79.8468 5.90167 79.9135 5.835L80.0735 5.675C80.1401 5.60833 80.2218 5.575 80.3185 5.575H80.9335C81.0301 5.575 81.1118 5.60833 81.1785 5.675L81.3385 5.835C81.4051 5.90167 81.4385 5.98333 81.4385 6.08V6.915ZM80.2685 6.515C80.2685 6.64833 80.3351 6.715 80.4685 6.715H80.7835C80.9168 6.715 80.9835 6.64833 80.9835 6.515V6.225C80.9835 6.09167 80.9168 6.025 80.7835 6.025H80.4685C80.3351 6.025 80.2685 6.09167 80.2685 6.225V6.515ZM82.4425 7.85C82.4425 7.98333 82.3758 8.05 82.2425 8.05H82.1875C82.0542 8.05 81.9875 7.98333 81.9875 7.85V6.085C81.9875 5.98833 82.0208 5.90667 82.0875 5.84L82.2525 5.675C82.3192 5.60833 82.4008 5.575 82.4975 5.575H83.1175C83.2142 5.575 83.2958 5.61 83.3625 5.68L83.5225 5.84C83.5892 5.90667 83.6225 5.98833 83.6225 6.085V7.85C83.6225 7.98333 83.5558 8.05 83.4225 8.05H83.3725C83.2392 8.05 83.1725 7.98333 83.1725 7.85V6.23C83.1725 6.09667 83.1058 6.03 82.9725 6.03H82.6425C82.5092 6.03 82.4425 6.09667 82.4425 6.23V7.85ZM85.3238 7.59C85.4572 7.59 85.5238 7.65667 85.5238 7.79V7.845C85.5238 7.97833 85.4572 8.045 85.3238 8.045H84.9788C84.8822 8.045 84.8005 8.01167 84.7338 7.945L84.5688 7.78C84.5022 7.71333 84.4688 7.63167 84.4688 7.535V6.225C84.4688 6.16167 84.4522 6.11333 84.4188 6.08C84.3855 6.04333 84.3372 6.025 84.2738 6.025C84.1405 6.025 84.0738 5.95833 84.0738 5.825V5.775C84.0738 5.71167 84.0905 5.66333 84.1238 5.63C84.1605 5.59333 84.2105 5.575 84.2738 5.575C84.3372 5.575 84.3855 5.55833 84.4188 5.525C84.4522 5.48833 84.4688 5.43833 84.4688 5.375V5.195C84.4688 5.06167 84.5355 4.995 84.6688 4.995H84.7238C84.8572 4.995 84.9238 5.06167 84.9238 5.195V5.375C84.9238 5.50833 84.9905 5.575 85.1238 5.575H85.3238C85.4572 5.575 85.5238 5.64167 85.5238 5.775V5.825C85.5238 5.95833 85.4572 6.025 85.3238 6.025H85.1238C84.9905 6.025 84.9238 6.09167 84.9238 6.225V7.39C84.9238 7.52333 84.9905 7.59 85.1238 7.59H85.3238ZM69.225 10.895C69.225 10.9917 69.1917 11.075 69.125 11.145C69.085 11.185 69.065 11.2267 69.065 11.27C69.065 11.31 69.0817 11.3467 69.115 11.38L69.125 11.39C69.1917 11.4567 69.225 11.54 69.225 11.64V12.535C69.225 12.6317 69.1917 12.715 69.125 12.785L68.965 12.945C68.8983 13.0117 68.8167 13.045 68.72 13.045H67.45C67.3167 13.045 67.25 12.9783 67.25 12.845V9.655C67.25 9.52167 67.3167 9.455 67.45 9.455H68.72C68.8167 9.455 68.8983 9.49 68.965 9.56L69.125 9.72C69.1917 9.78667 69.225 9.86833 69.225 9.965V10.895ZM67.905 9.91C67.7717 9.91 67.705 9.97667 67.705 10.11V10.84C67.705 10.9733 67.7717 11.04 67.905 11.04H68.57C68.7033 11.04 68.77 10.9733 68.77 10.84L68.775 10.11C68.775 9.97667 68.7083 9.91 68.575 9.91H67.905ZM68.775 11.695C68.775 11.5617 68.7083 11.495 68.575 11.495H67.905C67.7717 11.495 67.705 11.5617 67.705 11.695V12.39C67.705 12.5233 67.7717 12.59 67.905 12.59H68.575C68.7083 12.59 68.775 12.5233 68.775 12.39V11.695ZM70.9506 10.775C70.9506 10.6417 71.0173 10.575 71.1506 10.575H71.2056C71.3389 10.575 71.4056 10.6417 71.4056 10.775V12.535C71.4056 12.6317 71.3723 12.715 71.3056 12.785L71.1456 12.945C71.0789 13.0117 70.9973 13.045 70.9006 13.045H70.2856C70.1889 13.045 70.1073 13.0117 70.0406 12.945L69.8756 12.78C69.8089 12.7133 69.7756 12.6317 69.7756 12.535V10.775C69.7756 10.6417 69.8423 10.575 69.9756 10.575H70.0306C70.1639 10.575 70.2306 10.6417 70.2306 10.775V12.39C70.2306 12.5233 70.2973 12.59 70.4306 12.59H70.7506C70.8839 12.59 70.9506 12.5233 70.9506 12.39V10.775ZM72.082 9.915C72.132 9.865 72.1837 9.84 72.237 9.84C72.2904 9.84 72.342 9.865 72.392 9.915C72.442 9.965 72.467 10.0167 72.467 10.07C72.467 10.1233 72.442 10.175 72.392 10.225C72.342 10.275 72.2904 10.3 72.237 10.3C72.1837 10.3 72.132 10.275 72.082 10.225C72.032 10.175 72.007 10.1233 72.007 10.07C72.007 10.0167 72.032 9.965 72.082 9.915ZM72.012 10.775C72.012 10.6417 72.0787 10.575 72.212 10.575H72.262C72.3954 10.575 72.462 10.6417 72.462 10.775V12.845C72.462 12.9783 72.3954 13.045 72.262 13.045H72.212C72.0787 13.045 72.012 12.9783 72.012 12.845V10.775ZM73.0166 9.65C73.0166 9.51667 73.0833 9.45 73.2166 9.45H73.2666C73.3999 9.45 73.4666 9.51667 73.4666 9.65V12.845C73.4666 12.9783 73.3999 13.045 73.2666 13.045H73.2166C73.0833 13.045 73.0166 12.9783 73.0166 12.845V9.65ZM74.2288 10.675C74.2954 10.6083 74.3788 10.575 74.4788 10.575H74.9388C75.0721 10.575 75.1388 10.5083 75.1388 10.375V9.655C75.1388 9.52167 75.2054 9.455 75.3388 9.455H75.3938C75.5271 9.455 75.5938 9.52167 75.5938 9.655V12.845C75.5938 12.9783 75.5271 13.045 75.3938 13.045H74.4788C74.3821 13.045 74.3004 13.0117 74.2338 12.945L74.0688 12.78C74.0021 12.7133 73.9688 12.6317 73.9688 12.535V11.08C73.9688 10.9833 74.0021 10.9017 74.0688 10.835L74.2288 10.675ZM74.4238 12.39C74.4238 12.5233 74.4904 12.59 74.6238 12.59H74.9388C75.0721 12.59 75.1388 12.5233 75.1388 12.39V11.23C75.1388 11.0967 75.0721 11.03 74.9388 11.03H74.6238C74.4904 11.03 74.4238 11.0967 74.4238 11.23V12.39ZM76.2178 9.915C76.2678 9.865 76.3194 9.84 76.3728 9.84C76.4261 9.84 76.4778 9.865 76.5278 9.915C76.5778 9.965 76.6028 10.0167 76.6028 10.07C76.6028 10.1233 76.5778 10.175 76.5278 10.225C76.4778 10.275 76.4261 10.3 76.3728 10.3C76.3194 10.3 76.2678 10.275 76.2178 10.225C76.1678 10.175 76.1428 10.1233 76.1428 10.07C76.1428 10.0167 76.1678 9.965 76.2178 9.915ZM76.1478 10.775C76.1478 10.6417 76.2144 10.575 76.3478 10.575H76.3978C76.5311 10.575 76.5978 10.6417 76.5978 10.775V12.845C76.5978 12.9783 76.5311 13.045 76.3978 13.045H76.3478C76.2144 13.045 76.1478 12.9783 76.1478 12.845V10.775ZM77.6573 12.85C77.6573 12.9833 77.5907 13.05 77.4573 13.05H77.4023C77.269 13.05 77.2023 12.9833 77.2023 12.85V11.085C77.2023 10.9883 77.2357 10.9067 77.3023 10.84L77.4673 10.675C77.534 10.6083 77.6157 10.575 77.7123 10.575H78.3323C78.429 10.575 78.5107 10.61 78.5773 10.68L78.7373 10.84C78.804 10.9067 78.8373 10.9883 78.8373 11.085V12.85C78.8373 12.9833 78.7707 13.05 78.6373 13.05H78.5873C78.454 13.05 78.3873 12.9833 78.3873 12.85V11.23C78.3873 11.0967 78.3207 11.03 78.1873 11.03H77.8573C77.724 11.03 77.6573 11.0967 77.6573 11.23V12.85ZM80.3637 13.04C80.497 13.04 80.5637 12.9733 80.5637 12.84V12.725C80.5637 12.5917 80.497 12.525 80.3637 12.525H79.8987C79.7987 12.525 79.7153 12.4917 79.6487 12.425L79.4887 12.265C79.422 12.1983 79.3887 12.1167 79.3887 12.02V11.085C79.3887 10.9883 79.422 10.9067 79.4887 10.84L79.6537 10.675C79.7203 10.6083 79.802 10.575 79.8987 10.575H80.8187C80.952 10.575 81.0187 10.6417 81.0187 10.775V12.985C81.0187 13.035 81.0103 13.0783 80.9937 13.115C80.977 13.155 80.9503 13.1933 80.9137 13.23L80.7537 13.39C80.687 13.4567 80.6053 13.49 80.5087 13.49H79.6337C79.5003 13.49 79.4337 13.4233 79.4337 13.29V13.24C79.4337 13.1067 79.5003 13.04 79.6337 13.04H80.3637ZM79.8437 11.87C79.8437 12.0033 79.9103 12.07 80.0437 12.07H80.3637C80.497 12.07 80.5637 12.0033 80.5637 11.87V11.23C80.5637 11.0967 80.497 11.03 80.3637 11.03H80.0437C79.9103 11.03 79.8437 11.0967 79.8437 11.23V11.87ZM68.89 17.56C68.8533 17.6733 68.7783 17.73 68.665 17.73H68.47C68.35 17.73 68.2733 17.675 68.24 17.565L67.925 16.565C67.9117 16.5283 67.8933 16.5 67.87 16.48C67.85 16.46 67.8283 16.45 67.805 16.45C67.775 16.45 67.75 16.4633 67.73 16.49C67.71 16.5167 67.7 16.5533 67.7 16.6V17.84C67.7 17.9733 67.6333 18.04 67.5 18.04H67.45C67.3167 18.04 67.25 17.9733 67.25 17.84V14.655C67.25 14.5217 67.3167 14.455 67.45 14.455H67.525C67.6417 14.455 67.7167 14.51 67.75 14.62L68.43 16.795C68.4433 16.8417 68.4617 16.8767 68.485 16.9C68.5083 16.9233 68.5317 16.935 68.555 16.935C68.5817 16.935 68.6067 16.9233 68.63 16.9C68.6533 16.8733 68.6717 16.8367 68.685 16.79L69.325 14.625C69.3617 14.5117 69.4367 14.455 69.55 14.455H69.635C69.7683 14.455 69.835 14.5217 69.835 14.655V17.84C69.835 17.9733 69.7683 18.04 69.635 18.04H69.585C69.4517 18.04 69.385 17.9733 69.385 17.84V16.655C69.385 16.6083 69.375 16.5733 69.355 16.55C69.335 16.5233 69.31 16.51 69.28 16.51C69.2267 16.51 69.1883 16.5467 69.165 16.62L68.89 17.56ZM70.8459 18.04C70.7493 18.04 70.6676 18.0067 70.6009 17.94L70.4359 17.775C70.3693 17.7083 70.3359 17.6267 70.3359 17.53V16.95C70.3359 16.9 70.3443 16.8567 70.3609 16.82C70.3776 16.78 70.4043 16.7417 70.4409 16.705L70.6009 16.545C70.6676 16.4783 70.7493 16.445 70.8459 16.445H71.3209C71.4543 16.445 71.5209 16.3783 71.5209 16.245V16.23C71.5209 16.0967 71.4543 16.03 71.3209 16.03H70.5509C70.4176 16.03 70.3509 15.9633 70.3509 15.83V15.775C70.3509 15.6417 70.4176 15.575 70.5509 15.575H71.4659C71.5626 15.575 71.6443 15.6083 71.7109 15.675L71.8759 15.84C71.9426 15.9067 71.9759 15.9883 71.9759 16.085V17.84C71.9759 17.9733 71.9093 18.04 71.7759 18.04H70.8459ZM71.5209 17.055C71.5209 16.9217 71.4543 16.855 71.3209 16.855H70.9909C70.8576 16.855 70.7909 16.9217 70.7909 17.055V17.43C70.7909 17.5633 70.8576 17.63 70.9909 17.63H71.3209C71.4543 17.63 71.5209 17.5633 71.5209 17.43V17.055ZM73.0333 17.85C73.0333 17.9833 72.9667 18.05 72.8333 18.05H72.7783C72.645 18.05 72.5783 17.9833 72.5783 17.85V16.085C72.5783 15.9883 72.6117 15.9067 72.6783 15.84L72.8433 15.675C72.91 15.6083 72.9917 15.575 73.0883 15.575H73.7083C73.805 15.575 73.8867 15.61 73.9533 15.68L74.1133 15.84C74.18 15.9067 74.2133 15.9883 74.2133 16.085V17.85C74.2133 17.9833 74.1467 18.05 74.0133 18.05H73.9633C73.83 18.05 73.7633 17.9833 73.7633 17.85V16.23C73.7633 16.0967 73.6967 16.03 73.5633 16.03H73.2333C73.1 16.03 73.0333 16.0967 73.0333 16.23V17.85ZM75.2746 18.04C75.178 18.04 75.0963 18.0067 75.0296 17.94L74.8646 17.775C74.798 17.7083 74.7646 17.6267 74.7646 17.53V16.95C74.7646 16.9 74.773 16.8567 74.7896 16.82C74.8063 16.78 74.833 16.7417 74.8696 16.705L75.0296 16.545C75.0963 16.4783 75.178 16.445 75.2746 16.445H75.7496C75.883 16.445 75.9496 16.3783 75.9496 16.245V16.23C75.9496 16.0967 75.883 16.03 75.7496 16.03H74.9796C74.8463 16.03 74.7796 15.9633 74.7796 15.83V15.775C74.7796 15.6417 74.8463 15.575 74.9796 15.575H75.8946C75.9913 15.575 76.073 15.6083 76.1396 15.675L76.3046 15.84C76.3713 15.9067 76.4046 15.9883 76.4046 16.085V17.84C76.4046 17.9733 76.338 18.04 76.2046 18.04H75.2746ZM75.9496 17.055C75.9496 16.9217 75.883 16.855 75.7496 16.855H75.4196C75.2863 16.855 75.2196 16.9217 75.2196 17.055V17.43C75.2196 17.5633 75.2863 17.63 75.4196 17.63H75.7496C75.883 17.63 75.9496 17.5633 75.9496 17.43V17.055ZM77.932 18.04C78.0654 18.04 78.132 17.9733 78.132 17.84V17.725C78.132 17.5917 78.0654 17.525 77.932 17.525H77.467C77.367 17.525 77.2837 17.4917 77.217 17.425L77.057 17.265C76.9904 17.1983 76.957 17.1167 76.957 17.02V16.085C76.957 15.9883 76.9904 15.9067 77.057 15.84L77.222 15.675C77.2887 15.6083 77.3704 15.575 77.467 15.575H78.387C78.5204 15.575 78.587 15.6417 78.587 15.775V17.985C78.587 18.035 78.5787 18.0783 78.562 18.115C78.5454 18.155 78.5187 18.1933 78.482 18.23L78.322 18.39C78.2554 18.4567 78.1737 18.49 78.077 18.49H77.202C77.0687 18.49 77.002 18.4233 77.002 18.29V18.24C77.002 18.1067 77.0687 18.04 77.202 18.04H77.932ZM77.412 16.87C77.412 17.0033 77.4787 17.07 77.612 17.07H77.932C78.0654 17.07 78.132 17.0033 78.132 16.87V16.23C78.132 16.0967 78.0654 16.03 77.932 16.03H77.612C77.4787 16.03 77.412 16.0967 77.412 16.23V16.87ZM80.7598 16.915C80.7598 17.0483 80.6931 17.115 80.5598 17.115H79.7898C79.6564 17.115 79.5898 17.1817 79.5898 17.315V17.385C79.5898 17.5183 79.6564 17.585 79.7898 17.585H80.5598C80.6931 17.585 80.7598 17.6517 80.7598 17.785V17.84C80.7598 17.9733 80.6931 18.04 80.5598 18.04H79.6398C79.5431 18.04 79.4614 18.005 79.3948 17.935L79.2348 17.775C79.1681 17.7083 79.1348 17.6267 79.1348 17.53V16.08C79.1348 15.9833 79.1681 15.9017 79.2348 15.835L79.3948 15.675C79.4614 15.6083 79.5431 15.575 79.6398 15.575H80.2548C80.3514 15.575 80.4331 15.6083 80.4998 15.675L80.6598 15.835C80.7264 15.9017 80.7598 15.9833 80.7598 16.08V16.915ZM79.5898 16.515C79.5898 16.6483 79.6564 16.715 79.7898 16.715H80.1048C80.2381 16.715 80.3048 16.6483 80.3048 16.515V16.225C80.3048 16.0917 80.2381 16.025 80.1048 16.025H79.7898C79.6564 16.025 79.5898 16.0917 79.5898 16.225V16.515ZM81.7588 17.84C81.7588 17.9733 81.6921 18.04 81.5588 18.04H81.5088C81.3755 18.04 81.3088 17.9733 81.3088 17.84V16.085C81.3088 15.985 81.3421 15.9017 81.4088 15.835L81.5688 15.675C81.6355 15.6083 81.7171 15.575 81.8138 15.575H82.1288C82.1788 15.575 82.2221 15.5833 82.2588 15.6C82.2988 15.6167 82.3371 15.6433 82.3738 15.68C82.4171 15.7233 82.4605 15.745 82.5038 15.745C82.5405 15.745 82.5771 15.7267 82.6138 15.69L82.6238 15.68C82.6605 15.6433 82.6971 15.6167 82.7338 15.6C82.7738 15.5833 82.8188 15.575 82.8688 15.575H83.1638C83.2138 15.575 83.2571 15.5833 83.2938 15.6C83.3338 15.6167 83.3721 15.6433 83.4088 15.68L83.5688 15.84C83.6355 15.9067 83.6688 15.9883 83.6688 16.085V17.84C83.6688 17.9733 83.6021 18.04 83.4688 18.04H83.4188C83.2855 18.04 83.2188 17.9733 83.2188 17.84V16.23C83.2188 16.0967 83.1521 16.03 83.0188 16.03H82.9238C82.7905 16.03 82.7238 16.0967 82.7238 16.23V17.84C82.7238 17.9733 82.6571 18.04 82.5238 18.04H82.4738C82.3405 18.04 82.2738 17.9733 82.2738 17.84V16.23C82.2738 16.0967 82.2071 16.03 82.0738 16.03H81.9588C81.8255 16.03 81.7588 16.0967 81.7588 16.23V17.84ZM85.8428 16.915C85.8428 17.0483 85.7761 17.115 85.6428 17.115H84.8728C84.7394 17.115 84.6728 17.1817 84.6728 17.315V17.385C84.6728 17.5183 84.7394 17.585 84.8728 17.585H85.6428C85.7761 17.585 85.8428 17.6517 85.8428 17.785V17.84C85.8428 17.9733 85.7761 18.04 85.6428 18.04H84.7228C84.6261 18.04 84.5444 18.005 84.4778 17.935L84.3178 17.775C84.2511 17.7083 84.2178 17.6267 84.2178 17.53V16.08C84.2178 15.9833 84.2511 15.9017 84.3178 15.835L84.4778 15.675C84.5444 15.6083 84.6261 15.575 84.7228 15.575H85.3378C85.4344 15.575 85.5161 15.6083 85.5828 15.675L85.7428 15.835C85.8094 15.9017 85.8428 15.9833 85.8428 16.08V16.915ZM84.6728 16.515C84.6728 16.6483 84.7394 16.715 84.8728 16.715H85.1878C85.3211 16.715 85.3878 16.6483 85.3878 16.515V16.225C85.3878 16.0917 85.3211 16.025 85.1878 16.025H84.8728C84.7394 16.025 84.6728 16.0917 84.6728 16.225V16.515ZM86.8468 17.85C86.8468 17.9833 86.7801 18.05 86.6468 18.05H86.5918C86.4585 18.05 86.3918 17.9833 86.3918 17.85V16.085C86.3918 15.9883 86.4251 15.9067 86.4918 15.84L86.6568 15.675C86.7235 15.6083 86.8051 15.575 86.9018 15.575H87.5218C87.6185 15.575 87.7001 15.61 87.7668 15.68L87.9268 15.84C87.9935 15.9067 88.0268 15.9883 88.0268 16.085V17.85C88.0268 17.9833 87.9601 18.05 87.8268 18.05H87.7768C87.6435 18.05 87.5768 17.9833 87.5768 17.85V16.23C87.5768 16.0967 87.5101 16.03 87.3768 16.03H87.0468C86.9135 16.03 86.8468 16.0967 86.8468 16.23V17.85ZM89.7281 17.59C89.8615 17.59 89.9281 17.6567 89.9281 17.79V17.845C89.9281 17.9783 89.8615 18.045 89.7281 18.045H89.3831C89.2865 18.045 89.2048 18.0117 89.1381 17.945L88.9731 17.78C88.9065 17.7133 88.8731 17.6317 88.8731 17.535V16.225C88.8731 16.1617 88.8565 16.1133 88.8231 16.08C88.7898 16.0433 88.7415 16.025 88.6781 16.025C88.5448 16.025 88.4781 15.9583 88.4781 15.825V15.775C88.4781 15.7117 88.4948 15.6633 88.5281 15.63C88.5648 15.5933 88.6148 15.575 88.6781 15.575C88.7415 15.575 88.7898 15.5583 88.8231 15.525C88.8565 15.4883 88.8731 15.4383 88.8731 15.375V15.195C88.8731 15.0617 88.9398 14.995 89.0731 14.995H89.1281C89.2615 14.995 89.3281 15.0617 89.3281 15.195V15.375C89.3281 15.5083 89.3948 15.575 89.5281 15.575H89.7281C89.8615 15.575 89.9281 15.6417 89.9281 15.775V15.825C89.9281 15.9583 89.8615 16.025 89.7281 16.025H89.5281C89.3948 16.025 89.3281 16.0917 89.3281 16.225V17.39C89.3281 17.5233 89.3948 17.59 89.5281 17.59H89.7281ZM68.975 20.62C68.8417 20.62 68.775 20.5533 68.775 20.42V20.025C68.775 19.8917 68.7083 19.825 68.575 19.825H67.905C67.7717 19.825 67.705 19.8917 67.705 20.025V20.82C67.705 20.9533 67.7717 21.02 67.905 21.02H68.725C68.8217 21.02 68.9033 21.0533 68.97 21.12L69.13 21.28C69.1967 21.3467 69.23 21.4283 69.23 21.525V22.535C69.23 22.6317 69.1967 22.715 69.13 22.785L68.97 22.945C68.9033 23.0117 68.8217 23.045 68.725 23.045H67.76C67.6633 23.045 67.5817 23.0117 67.515 22.945L67.35 22.78C67.2833 22.7133 67.25 22.6317 67.25 22.535V22.045C67.25 21.9117 67.3167 21.845 67.45 21.845H67.505C67.6383 21.845 67.705 21.9117 67.705 22.045V22.39C67.705 22.5233 67.7717 22.59 67.905 22.59H68.575C68.7083 22.59 68.775 22.5233 68.775 22.39V21.67C68.775 21.5367 68.7083 21.47 68.575 21.47H67.76C67.66 21.47 67.5767 21.4367 67.51 21.37L67.35 21.21C67.2833 21.1433 67.25 21.0617 67.25 20.965V19.88C67.25 19.7833 67.2833 19.7 67.35 19.63L67.51 19.47C67.5767 19.4033 67.6583 19.37 67.755 19.37H68.725C68.8217 19.37 68.9033 19.405 68.97 19.475L69.13 19.635C69.1967 19.7017 69.23 19.7833 69.23 19.88V20.42C69.23 20.5533 69.1633 20.62 69.03 20.62H68.975ZM70.6555 21.79C70.7888 21.79 70.8555 21.7233 70.8555 21.59V20.775C70.8555 20.6417 70.9221 20.575 71.0555 20.575H71.1105C71.2438 20.575 71.3105 20.6417 71.3105 20.775V22.985C71.3105 23.0817 71.2771 23.1633 71.2105 23.23L71.0455 23.395C70.9788 23.4617 70.8971 23.495 70.8005 23.495H69.9255C69.7921 23.495 69.7255 23.4283 69.7255 23.295V23.24C69.7255 23.1067 69.7921 23.04 69.9255 23.04H70.6555C70.7888 23.04 70.8555 22.9733 70.8555 22.84V22.445C70.8555 22.3117 70.7888 22.245 70.6555 22.245H70.1905C70.0938 22.245 70.0121 22.2117 69.9455 22.145L69.7805 21.98C69.7138 21.9133 69.6805 21.8317 69.6805 21.735V20.775C69.6805 20.6417 69.7471 20.575 69.8805 20.575H69.9355C70.0688 20.575 70.1355 20.6417 70.1355 20.775V21.59C70.1355 21.7233 70.2021 21.79 70.3355 21.79H70.6555ZM73.1855 21.29C73.1222 21.29 73.0722 21.2783 73.0355 21.255C73.0022 21.2317 72.9855 21.1983 72.9855 21.155C72.9855 21.115 72.9672 21.0833 72.9305 21.06C72.8972 21.0367 72.8489 21.025 72.7855 21.025H72.4655C72.3322 21.025 72.2655 21.0917 72.2655 21.225V21.43C72.2655 21.5633 72.3322 21.63 72.4655 21.63H72.9305C73.0272 21.63 73.1089 21.6633 73.1755 21.73L73.3405 21.895C73.4072 21.9617 73.4405 22.0433 73.4405 22.14V22.535C73.4405 22.6317 73.4072 22.7133 73.3405 22.78L73.1755 22.945C73.1089 23.0117 73.0272 23.045 72.9305 23.045H72.3205C72.2239 23.045 72.1422 23.0117 72.0755 22.945L71.9105 22.78C71.8439 22.7133 71.8105 22.6317 71.8105 22.535V22.53C71.8105 22.3967 71.8772 22.33 72.0105 22.33H72.0655C72.1289 22.33 72.1772 22.3417 72.2105 22.365C72.2472 22.3883 72.2655 22.42 72.2655 22.46C72.2655 22.5 72.2822 22.5317 72.3155 22.555C72.3522 22.5783 72.4022 22.59 72.4655 22.59H72.7855C72.9189 22.59 72.9855 22.5233 72.9855 22.39V22.24C72.9855 22.1067 72.9189 22.04 72.7855 22.04H72.3155C72.2655 22.04 72.2222 22.0333 72.1855 22.02C72.1489 22.0033 72.1105 21.9783 72.0705 21.945L71.9205 21.815C71.8805 21.7817 71.8522 21.7467 71.8355 21.71C71.8189 21.67 71.8105 21.6233 71.8105 21.57V21.08C71.8105 21.03 71.8189 20.9867 71.8355 20.95C71.8522 20.91 71.8789 20.8717 71.9155 20.835L72.0755 20.675C72.1422 20.6083 72.2239 20.575 72.3205 20.575H72.9305C73.0305 20.575 73.1139 20.6083 73.1805 20.675L73.3405 20.835C73.4072 20.9017 73.4405 20.9833 73.4405 21.08V21.09C73.4405 21.2233 73.3739 21.29 73.2405 21.29H73.1855ZM75.0895 22.59C75.2228 22.59 75.2895 22.6567 75.2895 22.79V22.845C75.2895 22.9783 75.2228 23.045 75.0895 23.045H74.7445C74.6478 23.045 74.5661 23.0117 74.4995 22.945L74.3345 22.78C74.2678 22.7133 74.2345 22.6317 74.2345 22.535V21.225C74.2345 21.1617 74.2178 21.1133 74.1845 21.08C74.1511 21.0433 74.1028 21.025 74.0395 21.025C73.9061 21.025 73.8395 20.9583 73.8395 20.825V20.775C73.8395 20.7117 73.8561 20.6633 73.8895 20.63C73.9261 20.5933 73.9761 20.575 74.0395 20.575C74.1028 20.575 74.1511 20.5583 74.1845 20.525C74.2178 20.4883 74.2345 20.4383 74.2345 20.375V20.195C74.2345 20.0617 74.3011 19.995 74.4345 19.995H74.4895C74.6228 19.995 74.6895 20.0617 74.6895 20.195V20.375C74.6895 20.5083 74.7561 20.575 74.8895 20.575H75.0895C75.2228 20.575 75.2895 20.6417 75.2895 20.775V20.825C75.2895 20.9583 75.2228 21.025 75.0895 21.025H74.8895C74.7561 21.025 74.6895 21.0917 74.6895 21.225V22.39C74.6895 22.5233 74.7561 22.59 74.8895 22.59H75.0895ZM77.2637 21.915C77.2637 22.0483 77.197 22.115 77.0637 22.115H76.2937C76.1603 22.115 76.0937 22.1817 76.0937 22.315V22.385C76.0937 22.5183 76.1603 22.585 76.2937 22.585H77.0637C77.197 22.585 77.2637 22.6517 77.2637 22.785V22.84C77.2637 22.9733 77.197 23.04 77.0637 23.04H76.1437C76.047 23.04 75.9653 23.005 75.8987 22.935L75.7387 22.775C75.672 22.7083 75.6387 22.6267 75.6387 22.53V21.08C75.6387 20.9833 75.672 20.9017 75.7387 20.835L75.8987 20.675C75.9653 20.6083 76.047 20.575 76.1437 20.575H76.7587C76.8553 20.575 76.937 20.6083 77.0037 20.675L77.1637 20.835C77.2303 20.9017 77.2637 20.9833 77.2637 21.08V21.915ZM76.0937 21.515C76.0937 21.6483 76.1603 21.715 76.2937 21.715H76.6087C76.742 21.715 76.8087 21.6483 76.8087 21.515V21.225C76.8087 21.0917 76.742 21.025 76.6087 21.025H76.2937C76.1603 21.025 76.0937 21.0917 76.0937 21.225V21.515ZM78.2627 22.84C78.2627 22.9733 78.196 23.04 78.0627 23.04H78.0127C77.8794 23.04 77.8127 22.9733 77.8127 22.84V21.085C77.8127 20.985 77.846 20.9017 77.9127 20.835L78.0727 20.675C78.1394 20.6083 78.221 20.575 78.3177 20.575H78.6327C78.6827 20.575 78.726 20.5833 78.7627 20.6C78.8027 20.6167 78.841 20.6433 78.8777 20.68C78.921 20.7233 78.9644 20.745 79.0077 20.745C79.0444 20.745 79.081 20.7267 79.1177 20.69L79.1277 20.68C79.1644 20.6433 79.201 20.6167 79.2377 20.6C79.2777 20.5833 79.3227 20.575 79.3727 20.575H79.6677C79.7177 20.575 79.761 20.5833 79.7977 20.6C79.8377 20.6167 79.876 20.6433 79.9127 20.68L80.0727 20.84C80.1394 20.9067 80.1727 20.9883 80.1727 21.085V22.84C80.1727 22.9733 80.106 23.04 79.9727 23.04H79.9227C79.7894 23.04 79.7227 22.9733 79.7227 22.84V21.23C79.7227 21.0967 79.656 21.03 79.5227 21.03H79.4277C79.2944 21.03 79.2277 21.0967 79.2277 21.23V22.84C79.2277 22.9733 79.161 23.04 79.0277 23.04H78.9777C78.8444 23.04 78.7777 22.9733 78.7777 22.84V21.23C78.7777 21.0967 78.711 21.03 78.5777 21.03H78.4627C78.3294 21.03 78.2627 21.0967 78.2627 21.23V22.84Z" fill="#838383"/>
<path d="M1.95 32.68H8.11V36.78H7.34V33.3H2.68V36.8H1.95V32.68ZM2.37 34.24H7.62V34.82H2.37V34.24ZM1.57 28.43H4.76V29.04H1.57V28.43ZM0.49 30H5.02V30.61H0.49V30ZM2.37 35.81H7.62V36.43H2.37V35.81ZM2.57 28.65H3.29V29.64C3.29 30.61 3 31.95 0.88 32.9C0.78 32.75 0.57 32.51 0.4 32.39C2.42 31.59 2.57 30.42 2.57 29.63V28.65ZM1.62 27.57L2.3 27.71C2.04 28.57 1.58 29.4 1.09 29.95C0.96 29.85 0.66 29.66 0.49 29.59C1 29.08 1.4 28.33 1.62 27.57ZM3.07 30.76C3.43 30.95 4.65 31.69 4.94 31.89L4.42 32.41C4.05 32.1 3.01 31.36 2.58 31.09L3.07 30.76ZM6.14 29.09V31.22H8.22V29.09H6.14ZM5.44 28.42H8.96V31.91H5.44V28.42ZM14.48 34.45H15.22V35.75C15.22 35.99 15.31 36.03 15.85 36.03C16.09 36.03 17.37 36.03 17.7 36.03C18.12 36.03 18.19 35.93 18.24 35.12C18.39 35.24 18.7 35.34 18.9 35.38C18.8 36.44 18.58 36.7 17.76 36.7C17.54 36.7 16.02 36.7 15.8 36.7C14.74 36.7 14.48 36.5 14.48 35.76V34.45ZM15.45 34.3L15.93 33.88C16.5 34.13 17.18 34.54 17.51 34.9L17.01 35.36C16.69 35.01 16.03 34.57 15.45 34.3ZM18.76 34.76L19.35 34.41C20.04 34.89 20.79 35.6 21.11 36.16L20.48 36.55C20.18 36.01 19.46 35.27 18.76 34.76ZM13.24 34.49L13.88 34.73C13.6 35.42 13.18 36.14 12.48 36.57L11.89 36.15C12.54 35.78 13 35.12 13.24 34.49ZM12.95 31.27H19.9V34.02H12.89V33.5H19.16V31.8H12.95V31.27ZM13.26 32.38H19.41V32.87H13.26V32.38ZM12.28 28.13H16.13V28.63H12.28V28.13ZM12.5 29.11H16V29.61H12.5V29.11ZM13.89 27.61H14.59V31.12H13.89V27.61ZM16.54 28.13H20.65V28.63H16.54V28.13ZM16.44 30.11H20.84V30.61H16.44V30.11ZM16.77 29.11H20.49V29.61H16.77V29.11ZM18.19 27.61H18.9V31.12H18.19V27.61ZM12.16 30.23C13.17 30.18 14.7 30.09 16.21 29.99L16.2 30.49C14.74 30.6 13.25 30.71 12.19 30.78L12.16 30.23ZM26.13 29.72H32.6V30.33H26.13V29.72ZM26.72 32.42H31.94V32.99H26.72V32.42ZM26.27 33.79H32.38V34.41H26.27V33.79ZM28.9 27.68H29.63V35.47H28.9V27.68ZM26.85 28.41H31.85V31.67H26.78V31.07H31.11V29.01H26.85V28.41ZM23.41 28.24H25.57V28.91H23.41V28.24ZM25.3 28.24H25.41L25.53 28.2L26.04 28.36C25.58 29.41 24.83 30.96 24.22 32.15L23.54 31.96C24.16 30.79 24.93 29.17 25.3 28.33V28.24ZM24.32 31.09H25.96V31.76H24.23L24.32 31.09ZM25.65 31.09H25.8L25.94 31.07L26.37 31.18C26.07 34.09 25.2 35.88 23.9 36.82C23.78 36.67 23.5 36.4 23.33 36.3C24.6 35.45 25.4 33.82 25.65 31.24V31.09ZM24.35 32.56C25.16 35.32 27.02 35.82 29.56 35.82C29.98 35.82 32.14 35.82 32.67 35.81C32.55 35.98 32.41 36.32 32.36 36.54H29.54C26.65 36.54 24.72 35.93 23.75 32.79L24.35 32.56ZM35.16 30.27H38.69V30.83H35.16V30.27ZM36.58 30.44H37.27V32.45H36.58V30.44ZM34.97 32.41C35.9 32.28 37.32 32.06 38.69 31.84L38.73 32.43C37.42 32.65 36.07 32.87 35.08 33.03L34.97 32.41ZM39.27 30.21H39.96V31.23C39.96 32.06 39.64 32.96 38.18 33.54C38.09 33.39 37.83 33.12 37.69 33.02C39.03 32.53 39.27 31.86 39.27 31.21V30.21ZM42.08 30.21H42.8V32.23C42.8 32.42 42.8 32.53 42.84 32.57C42.87 32.6 42.93 32.61 43 32.61C43.06 32.61 43.18 32.61 43.27 32.61C43.35 32.61 43.43 32.6 43.47 32.57C43.51 32.55 43.55 32.48 43.57 32.37C43.59 32.24 43.6 31.96 43.61 31.58C43.74 31.7 43.96 31.81 44.13 31.86C44.12 32.23 44.09 32.65 44.03 32.8C43.98 32.96 43.88 33.07 43.75 33.13C43.64 33.18 43.45 33.2 43.29 33.2C43.18 33.2 42.93 33.2 42.83 33.2C42.63 33.2 42.41 33.16 42.27 33.04C42.13 32.91 42.08 32.75 42.08 32.2V30.21ZM35.04 33.76H43.98V34.38H35.04V33.76ZM39.12 32.99H39.85V36.79H39.12V32.99ZM38.84 34.08L39.42 34.35C38.49 35.34 36.79 36.17 35.31 36.55C35.2 36.36 34.99 36.09 34.83 35.94C36.31 35.63 37.99 34.91 38.84 34.08ZM40.12 34.12C41 34.92 42.69 35.59 44.17 35.89C44.01 36.03 43.8 36.33 43.69 36.52C42.21 36.16 40.51 35.34 39.57 34.37L40.12 34.12ZM36.13 28.38H39.36V28.99H36.13V28.38ZM40.03 28.38H44.07V28.99H40.03V28.38ZM36.32 27.56L37.03 27.74C36.66 28.61 36.07 29.47 35.49 30.03C35.35 29.91 35.05 29.71 34.88 29.61C35.47 29.1 36.01 28.33 36.32 27.56ZM40.26 27.56L40.97 27.73C40.61 28.62 39.97 29.46 39.33 29.99C39.18 29.88 38.86 29.7 38.68 29.61C39.34 29.12 39.94 28.36 40.26 27.56ZM36.69 28.86L37.28 28.7C37.51 29.04 37.75 29.51 37.86 29.81L37.23 29.99C37.14 29.69 36.91 29.21 36.69 28.86ZM40.93 28.85L41.55 28.66C41.85 29 42.19 29.47 42.34 29.79L41.7 30.01C41.56 29.69 41.24 29.2 40.93 28.85ZM40.09 31.56L40.52 31.16C41.01 31.45 41.62 31.89 41.91 32.19L41.47 32.65C41.17 32.33 40.58 31.87 40.09 31.56ZM39.54 30.21H42.46V30.75H39.54V30.21ZM48.7 35.89H53.99V36.47H48.7V35.89ZM50.61 29.63H51.34V30.74H50.61V29.63ZM46.81 30.41H55.26V32.29H54.52V31.01H47.53V32.29H46.81V30.41ZM48.66 31.63H53.79V33.64H48.66V33.06H53.05V32.2H48.66V31.63ZM48.69 34.33H54.43V36.79H53.69V34.92H48.69V34.33ZM48.26 31.63H48.98V36.81H48.26V31.63ZM47.63 28.37H50.86V28.99H47.63V28.37ZM51.53 28.37H55.57V28.99H51.53V28.37ZM47.82 27.56L48.53 27.74C48.16 28.62 47.57 29.49 46.99 30.06C46.85 29.95 46.55 29.74 46.37 29.65C46.97 29.13 47.51 28.34 47.82 27.56ZM51.76 27.56L52.47 27.73C52.11 28.6 51.48 29.41 50.85 29.93C50.7 29.82 50.39 29.64 50.2 29.55C50.86 29.07 51.44 28.33 51.76 27.56ZM48.19 28.84L48.84 28.67C49.07 29.02 49.33 29.51 49.43 29.82L48.75 30.02C48.66 29.71 48.42 29.21 48.19 28.84ZM52.43 28.85L53.09 28.65C53.4 29 53.76 29.49 53.91 29.82L53.23 30.04C53.09 29.72 52.75 29.21 52.43 28.85ZM62.25 30.61V31.9H65.97V30.61H62.25ZM62.25 28.72V29.99H65.97V28.72H62.25ZM61.57 28.07H66.69V32.55H61.57V28.07ZM61.44 33.72H66.83V34.41H61.44V33.72ZM60.67 35.79H67.16V36.47H60.67V35.79ZM57.95 28.28H61.07V28.99H57.95V28.28ZM58.06 31.17H60.93V31.88H58.06V31.17ZM57.85 35C58.66 34.78 59.86 34.39 61.02 34L61.15 34.72C60.06 35.09 58.92 35.47 58.03 35.77L57.85 35ZM59.2 28.56H59.92V34.76L59.2 34.9V28.56ZM63.78 28.38H64.44V32.23H64.49V36.1H63.73V32.23H63.78V28.38ZM71.68 34.09L72.45 34.38C71.81 35.2 70.86 36.05 70.05 36.6C69.9 36.45 69.58 36.2 69.38 36.08C70.22 35.6 71.12 34.83 71.68 34.09ZM75.41 34.47L76.02 34.05C76.87 34.66 77.97 35.54 78.52 36.11L77.86 36.58C77.35 36.01 76.28 35.1 75.41 34.47ZM70.29 30.49L70.81 30.03C71.71 30.53 72.84 31.31 73.39 31.88L72.84 32.42C72.32 31.85 71.21 31.03 70.29 30.49ZM75.52 31.77L76.12 31.38C77 32.08 78.07 33.09 78.59 33.78L77.92 34.22C77.45 33.54 76.4 32.5 75.52 31.77ZM73.58 33.17H74.37V36.81H73.58V33.17ZM69.55 32.88C71.49 32.87 74.63 32.81 77.53 32.75L77.49 33.42C74.64 33.52 71.61 33.59 69.63 33.63L69.55 32.88ZM75.67 29.25L76.39 29.63C75.17 30.93 73.44 32.44 72.12 33.38L71.54 33C72.88 32.06 74.62 30.47 75.67 29.25ZM73.08 28.57L73.8 28.94C73.21 29.66 72.42 30.49 71.81 31.02L71.22 30.69C71.82 30.15 72.62 29.24 73.08 28.57ZM77.25 27.75L77.8 28.39C75.77 28.78 72.65 28.99 70.05 29.05C70.03 28.86 69.94 28.56 69.87 28.38C72.45 28.3 75.53 28.09 77.25 27.75ZM86.75 27.6H87.51V29.22H86.75V27.6ZM86.18 29.37L86.98 29.6C86.65 30.37 86.25 31.3 85.92 31.88L85.29 31.67C85.61 31.07 85.99 30.07 86.18 29.37ZM87.89 30.3L88.47 29.99C89.1 30.69 89.8 31.66 90.1 32.29L89.47 32.65C89.18 32.02 88.51 31.03 87.89 30.3ZM84.47 28.93H89.94V29.61H84.47V28.93ZM84.51 31.49C85.68 31.44 87.47 31.33 89.2 31.21L89.19 31.87C87.53 31.99 85.79 32.11 84.58 32.19L84.51 31.49ZM87.66 32.55H88.37V35.78C88.37 36.03 88.41 36.06 88.62 36.06C88.72 36.06 89.18 36.06 89.31 36.06C89.51 36.06 89.55 35.9 89.58 34.8C89.73 34.93 90.03 35.05 90.22 35.09C90.16 36.4 89.98 36.74 89.38 36.74C89.24 36.74 88.65 36.74 88.51 36.74C87.83 36.74 87.66 36.52 87.66 35.78V32.55ZM82.45 27.61L83.11 27.87C82.73 28.6 82.26 29.49 81.87 30.04L81.35 29.8C81.73 29.23 82.19 28.27 82.45 27.61ZM83.57 28.75L84.2 29.03C83.52 30.18 82.56 31.63 81.82 32.51L81.36 32.25C82.1 31.35 83.04 29.83 83.57 28.75ZM80.87 29.71L81.25 29.22C81.81 29.69 82.44 30.34 82.71 30.79L82.31 31.36C82.04 30.89 81.41 30.19 80.87 29.71ZM83.22 31.07L83.74 30.86C84.15 31.5 84.55 32.36 84.69 32.91L84.13 33.17C83.99 32.61 83.62 31.73 83.22 31.07ZM80.84 32.09C81.71 32.06 82.96 32.01 84.23 31.94L84.22 32.56C83.02 32.64 81.81 32.71 80.9 32.77L80.84 32.09ZM83.48 33.43L84.02 33.26C84.3 33.82 84.57 34.58 84.67 35.08L84.09 35.28C84 34.78 83.73 34.01 83.48 33.43ZM81.4 33.32L82.05 33.44C81.91 34.38 81.66 35.35 81.34 35.99C81.21 35.91 80.91 35.77 80.75 35.7C81.08 35.09 81.28 34.2 81.4 33.32ZM82.48 32.37H83.15V36.83H82.48V32.37ZM85.81 32.56H86.53C86.44 34.75 86.11 36.1 84.33 36.84C84.24 36.67 84.04 36.42 83.89 36.29C85.49 35.66 85.73 34.5 85.81 32.56Z" fill="#838383"/>
</svg>
